<svg xmlns="http://www.w3.org/2000/svg" viewBox="1 46.7 600 500">
  <path fill="#EBD851" d="M1 46.7h600v500H1z"/>
  <path fill="#323330" d="M125.4 278.8l16.2-9.8c3.1 5.5 6 10.2 12.8 10.2 6.6 0 10.7-2.5 10.7-12.5v-67.8H185V267c0 20.6-12.1 30-29.7 30-16 0-25.2-8.2-29.9-17.6v-.6zM206.1 276.9l16-9.3c4.3 6.9 9.7 11.9 19.4 11.9 8.2 0 13.4-4 13.4-9.6 0-6.8-5.4-9.2-14.4-13.1l-4.9-2.1c-14.2-6-23.6-13.6-23.6-29.6 0-14.8 11.3-26 28.8-26 12.5 0 21.5 4.4 28 15.7l-15.3 9.9c-3.4-6.1-7.1-8.5-12.7-8.5-5.7 0-9.4 3.7-9.4 8.5 0 5.8 3.7 8.2 12.1 11.9l4.9 2.1c16.7 7.2 26.1 14.5 26.1 30.9 0 17.7-13.9 27.4-32.6 27.4-18.2 0-30-8.7-35.8-20.1zM368 228.7l15.2-10.2c-16.3-21.6-47.1-25.8-68.6-9.4s-25.8 47.1-9.4 68.6 47.1 25.8 68.6 9.4c3.6-2.7 6.7-5.9 9.4-9.4L368 267.6c-10.7 12.9-29.9 14.7-42.8 3.9s-14.7-29.9-3.9-42.8c10.7-12.9 29.9-14.7 42.8-3.9 1.4 1.2 2.7 2.5 3.9 3.9zM406.1 276.9l16-9.3c4.3 6.9 9.7 11.9 19.4 11.9 8.2 0 13.4-4 13.4-9.6 0-6.8-5.4-9.2-14.4-13.1l-4.9-2.1c-14.2-6-23.6-13.6-23.6-29.6 0-14.8 11.3-26 28.8-26 12.5 0 21.5 4.4 28 15.7l-15.3 9.9c-3.4-6.1-7.1-8.5-12.7-8.5-5.7 0-9.4 3.7-9.4 8.5 0 5.8 3.7 8.2 12.1 11.9l4.9 2.1c16.7 7.2 26.1 14.5 26.1 30.9 0 17.7-13.9 27.4-32.6 27.4-18.2 0-30-8.7-35.8-20.1zM129 380h52v17h-52zM218 380h52v17h-52zM301 380l43-43 43 43h-26l-17-17-17 17"/>
</svg>
