<?xml version="1.0" encoding="utf-8"?>
<!-- Generator: Adobe Illustrator 15.0.2, SVG Export Plug-In . SVG Version: 6.00 Build 0)  -->
<!DOCTYPE svg PUBLIC "-//W3C//DTD SVG 1.1//EN" "http://www.w3.org/Graphics/SVG/1.1/DTD/svg11.dtd">
<svg version="1.1" id="Layer_1" xmlns="http://www.w3.org/2000/svg" xmlns:xlink="http://www.w3.org/1999/xlink" x="0px" y="0px"
	 width="512px" height="448px" viewBox="0 0 512 448" enable-background="new 0 0 512 448" xml:space="preserve">
<g>
	<path d="M480,0H32C14.336,0,0,14.336,0,32v288c0,17.656,14.336,32,32,32h159.969c-0.062,23.125-0.992,53.188-9.758,64h-6.469
		c-8.703,0-15.742,7.172-15.742,16s7.039,16,15.742,16h160.477c8.75,0,15.781-7.172,15.781-16s-7.031-16-15.75-16h-6.469
		c-8.781-10.812-9.688-40.875-9.75-64H480c17.656,0,32-14.344,32-32V32C512,14.336,497.656,0,480,0z M224,352l-0.031,0.062
		C223.969,352.031,223.969,352.031,224,352L224,352z M288.031,352.062L288,352h0.031
		C288.031,352.031,288.031,352.031,288.031,352.062z M480,288H32V32h448V288z"/>
</g>
</svg>
