<?xml version="1.0" encoding="utf-8"?>
<!-- Generator: Adobe Illustrator 16.0.0, SVG Export Plug-In . SVG Version: 6.00 Build 0)  -->
<!DOCTYPE svg PUBLIC "-//W3C//DTD SVG 1.1//EN" "http://www.w3.org/Graphics/SVG/1.1/DTD/svg11.dtd">
<svg version="1.1" id="Layer_1" xmlns="http://www.w3.org/2000/svg" xmlns:xlink="http://www.w3.org/1999/xlink" x="0px" y="0px"
	 width="512px" height="512px" viewBox="0 0 512 512" enable-background="new 0 0 512 512" xml:space="preserve">
<path fill-rule="evenodd" clip-rule="evenodd" fill="#010101" d="M384,0H128c-17.688,0-32,14.328-32,32v448
	c0,17.688,14.313,32,32,32h256c17.688,0,32-14.313,32-32V32C416,14.328,401.688,0,384,0z M200,32h112c4.438,0,8,3.578,8,8
	s-3.563,8-8,8H200c-4.438,0-8-3.578-8-8S195.563,32,200,32z M256,496c-13.25,0-24-10.75-24-24s10.75-24,24-24s24,10.75,24,24
	S269.25,496,256,496z M384,432H128V80h256V432z"/>
</svg>
